# xmcd CD database file
#
# Track frame offsets:
#	150
#	11758
#	30939
#	50480
#	64386
#	77171
#	88471
#	101231
#	113069
#	126247
#	141732
#	155458
#	176973
#	190888
#	207172
#	224156
#	259856
#	296019
#
# Disc length: 4459 seconds
#
# Revision: 0
# Processed by: cddbd v1.5.2PL0 Copyright (c) Steve Scherf et al.
# Submitted via: CDex 1.70beta2
#
DISCID=23116912
DTITLE=Earl Hinesq - Giants of Jazz Disc 2
DYEAR=1900
DGENRE=Jazz
TTITLE0=Piano Man: Earl Hines and His Orchestra
TTITLE1=The Father’s Getaway: Earl Hines
TTITLE2=Reminiscing at Blue Note: Earl Hines
TTITLE3=Rosetta: Earl Hines
TTITLE4=Boogie Woogie on St. Louis Blues: Earl Hines and His Orchestra
TTITLE5=Deep Forest: Earl Hines and His Orchestra
TTITLE6=Number 19: Earl Hines and His Orchestra
TTITLE7=Child of a Disordered Brain: Earl Hines
TTITLE8=Tantalizing a Cuban: Earl Hines and His Orchestra
TTITLE9=Jelly, Jelly: Earl Hines and His Orchestra
TTITLE10=Second Balcony Jump: Earl Hines and His Orchestra
TTITLE11=Thru for the Night: Cozy Cole All Stars 
TTITLE12=Life with Fatha: Earl Hines Sextet
TTITLE13=‘Deed I Do: Earl Hines Trio
TTITLE14=Blues for Tatum: Earl Hines
TTITLE15=Brussels’ Hustle: Earl Hines Quartet
TTITLE16=Apex Blues: Earl Hines Trio 
TTITLE17=Blues in Thirds: Earl Hines 
EXTD=
EXTT0=
EXTT1=
EXTT2=
EXTT3=
EXTT4=
EXTT5=
EXTT6=
EXTT7=
EXTT8=
EXTT9=
EXTT10=
EXTT11=
EXTT12=
EXTT13=
EXTT14=
EXTT15=
EXTT16=
EXTT17=
PLAYORDER=
